<mxfile host="app.diagrams.net" modified="2021-08-18T02:57:50.691Z" agent="5.0 (Windows NT 10.0; WOW64) AppleWebKit/537.36 (KHTML, like Gecko) Chrome/91.0.4472.114 Safari/537.36" etag="gMQrXjppnDoVAJZ-Vrxx" version="14.9.6" type="github">
  <diagram id="LugBvlcl4rpZaGuCjKr6" name="Page-1">
    <mxGraphModel dx="4157" dy="1472" grid="0" gridSize="10" guides="1" tooltips="1" connect="1" arrows="1" fold="1" page="1" pageScale="1" pageWidth="1330" pageHeight="370" math="0" shadow="0">
      <root>
        <mxCell id="0" />
        <mxCell id="1" parent="0" />
        <mxCell id="0CIJcV_qVtSHaj7hHHwW-113" value="" style="text;html=1;fillColor=#b1ddf0;align=center;verticalAlign=middle;whiteSpace=wrap;rounded=0;rotation=90;gradientColor=#ffffff;gradientDirection=radial;shadow=0;sketch=0;glass=0;" vertex="1" parent="1">
          <mxGeometry x="-1558.13" y="-631.0899999999999" width="249.24" height="107.08" as="geometry" />
        </mxCell>
        <mxCell id="0CIJcV_qVtSHaj7hHHwW-1" value="w&lt;sub&gt;q1&lt;/sub&gt;" style="rounded=1;whiteSpace=wrap;html=1;direction=west;fillColor=#d5e8d4;strokeColor=#82b366;" vertex="1" parent="1">
          <mxGeometry x="-2079" y="-719" width="44" height="21" as="geometry" />
        </mxCell>
        <mxCell id="0CIJcV_qVtSHaj7hHHwW-2" value="w&lt;sub&gt;qm&lt;/sub&gt;" style="rounded=1;whiteSpace=wrap;html=1;fillColor=#d5e8d4;strokeColor=#82b366;" vertex="1" parent="1">
          <mxGeometry x="-2081" y="-672" width="44" height="21" as="geometry" />
        </mxCell>
        <mxCell id="0CIJcV_qVtSHaj7hHHwW-3" value="&lt;b&gt;&lt;font style=&quot;font-size: 18px&quot;&gt;···&lt;/font&gt;&lt;/b&gt;" style="text;html=1;align=center;verticalAlign=middle;whiteSpace=wrap;rounded=0;rotation=90;" vertex="1" parent="1">
          <mxGeometry x="-2077" y="-695" width="40" height="20" as="geometry" />
        </mxCell>
        <mxCell id="0CIJcV_qVtSHaj7hHHwW-4" value="w&lt;sub&gt;11&lt;/sub&gt;" style="rounded=1;whiteSpace=wrap;html=1;fillColor=#d5e8d4;strokeColor=#82b366;" vertex="1" parent="1">
          <mxGeometry x="-2081" y="-633" width="44" height="21" as="geometry" />
        </mxCell>
        <mxCell id="0CIJcV_qVtSHaj7hHHwW-5" value="w&lt;sub&gt;1m&lt;/sub&gt;" style="rounded=1;whiteSpace=wrap;html=1;fillColor=#d5e8d4;strokeColor=#82b366;" vertex="1" parent="1">
          <mxGeometry x="-2081" y="-584" width="44" height="21" as="geometry" />
        </mxCell>
        <mxCell id="0CIJcV_qVtSHaj7hHHwW-6" value="&lt;b&gt;&lt;font style=&quot;font-size: 18px&quot;&gt;···&lt;/font&gt;&lt;/b&gt;" style="text;html=1;align=center;verticalAlign=middle;whiteSpace=wrap;rounded=0;rotation=90;" vertex="1" parent="1">
          <mxGeometry x="-2079" y="-606" width="40" height="20" as="geometry" />
        </mxCell>
        <mxCell id="0CIJcV_qVtSHaj7hHHwW-7" value="w&lt;sub&gt;n1&lt;/sub&gt;" style="rounded=1;whiteSpace=wrap;html=1;fillColor=#d5e8d4;strokeColor=#82b366;" vertex="1" parent="1">
          <mxGeometry x="-2083" y="-516" width="44" height="21" as="geometry" />
        </mxCell>
        <mxCell id="0CIJcV_qVtSHaj7hHHwW-8" value="w&lt;sub&gt;nm&lt;/sub&gt;" style="rounded=1;whiteSpace=wrap;html=1;fillColor=#d5e8d4;strokeColor=#82b366;" vertex="1" parent="1">
          <mxGeometry x="-2084" y="-471" width="44" height="21" as="geometry" />
        </mxCell>
        <mxCell id="0CIJcV_qVtSHaj7hHHwW-9" value="&lt;b&gt;&lt;font style=&quot;font-size: 18px&quot;&gt;···&lt;/font&gt;&lt;/b&gt;" style="text;html=1;align=center;verticalAlign=middle;whiteSpace=wrap;rounded=0;rotation=90;" vertex="1" parent="1">
          <mxGeometry x="-2081" y="-491" width="40" height="20" as="geometry" />
        </mxCell>
        <mxCell id="0CIJcV_qVtSHaj7hHHwW-10" value="&lt;font style=&quot;font-size: 14px&quot;&gt;query&lt;/font&gt;" style="text;html=1;strokeColor=none;fillColor=none;align=center;verticalAlign=middle;whiteSpace=wrap;rounded=0;rotation=90;" vertex="1" parent="1">
          <mxGeometry x="-2124" y="-695" width="40" height="20" as="geometry" />
        </mxCell>
        <mxCell id="0CIJcV_qVtSHaj7hHHwW-11" value="&lt;font style=&quot;font-size: 14px&quot;&gt;clause1&lt;/font&gt;" style="text;html=1;strokeColor=none;fillColor=none;align=center;verticalAlign=middle;whiteSpace=wrap;rounded=0;rotation=90;" vertex="1" parent="1">
          <mxGeometry x="-2124" y="-606" width="40" height="20" as="geometry" />
        </mxCell>
        <mxCell id="0CIJcV_qVtSHaj7hHHwW-12" value="&lt;font style=&quot;font-size: 14px&quot;&gt;clause n&lt;/font&gt;" style="text;html=1;strokeColor=none;fillColor=none;align=center;verticalAlign=middle;whiteSpace=wrap;rounded=0;rotation=90;" vertex="1" parent="1">
          <mxGeometry x="-2142" y="-495" width="71" height="20" as="geometry" />
        </mxCell>
        <mxCell id="0CIJcV_qVtSHaj7hHHwW-13" value="&lt;b&gt;&lt;font style=&quot;font-size: 18px&quot;&gt;···&lt;/font&gt;&lt;/b&gt;" style="text;html=1;align=center;verticalAlign=middle;whiteSpace=wrap;rounded=0;rotation=90;" vertex="1" parent="1">
          <mxGeometry x="-2081" y="-549" width="40" height="20" as="geometry" />
        </mxCell>
        <mxCell id="0CIJcV_qVtSHaj7hHHwW-17" value="" style="text;html=1;fillColor=#dae8fc;align=center;verticalAlign=middle;whiteSpace=wrap;rounded=0;rotation=90;" vertex="1" parent="1">
          <mxGeometry x="-2087.25" y="-629.25" width="270.5" height="89.5" as="geometry" />
        </mxCell>
        <mxCell id="0CIJcV_qVtSHaj7hHHwW-28" style="edgeStyle=orthogonalEdgeStyle;rounded=0;orthogonalLoop=1;jettySize=auto;html=1;exitX=1;exitY=0.5;exitDx=0;exitDy=0;entryX=0;entryY=0.5;entryDx=0;entryDy=0;endArrow=none;endFill=0;fillColor=#dae8fc;strokeColor=#A9C4EB;" edge="1" parent="1" source="0CIJcV_qVtSHaj7hHHwW-19" target="0CIJcV_qVtSHaj7hHHwW-24">
          <mxGeometry relative="1" as="geometry" />
        </mxCell>
        <mxCell id="0CIJcV_qVtSHaj7hHHwW-29" style="rounded=0;orthogonalLoop=1;jettySize=auto;html=1;entryX=0;entryY=0.5;entryDx=0;entryDy=0;endArrow=none;endFill=0;exitX=1;exitY=0.5;exitDx=0;exitDy=0;fillColor=#dae8fc;strokeColor=#A9C4EB;" edge="1" parent="1" source="0CIJcV_qVtSHaj7hHHwW-19" target="0CIJcV_qVtSHaj7hHHwW-25">
          <mxGeometry relative="1" as="geometry" />
        </mxCell>
        <mxCell id="0CIJcV_qVtSHaj7hHHwW-30" style="edgeStyle=none;rounded=0;orthogonalLoop=1;jettySize=auto;html=1;entryX=0;entryY=0.5;entryDx=0;entryDy=0;endArrow=none;endFill=0;exitX=1;exitY=0.5;exitDx=0;exitDy=0;fillColor=#dae8fc;strokeColor=#A9C4EB;" edge="1" parent="1" source="0CIJcV_qVtSHaj7hHHwW-19" target="0CIJcV_qVtSHaj7hHHwW-26">
          <mxGeometry relative="1" as="geometry" />
        </mxCell>
        <mxCell id="0CIJcV_qVtSHaj7hHHwW-31" style="edgeStyle=none;rounded=0;orthogonalLoop=1;jettySize=auto;html=1;entryX=0;entryY=0.5;entryDx=0;entryDy=0;endArrow=none;endFill=0;exitX=1;exitY=0.5;exitDx=0;exitDy=0;fillColor=#dae8fc;strokeColor=#A9C4EB;" edge="1" parent="1" source="0CIJcV_qVtSHaj7hHHwW-19" target="0CIJcV_qVtSHaj7hHHwW-27">
          <mxGeometry relative="1" as="geometry">
            <mxPoint x="-1966" y="-678.5" as="sourcePoint" />
          </mxGeometry>
        </mxCell>
        <mxCell id="0CIJcV_qVtSHaj7hHHwW-19" value="" style="ellipse;whiteSpace=wrap;html=1;strokeColor=#A9C4EB;fillColor=#A9C4EB;strokeWidth=0;" vertex="1" parent="1">
          <mxGeometry x="-1993" y="-698.5" width="24" height="31" as="geometry" />
        </mxCell>
        <mxCell id="0CIJcV_qVtSHaj7hHHwW-36" style="edgeStyle=none;rounded=0;orthogonalLoop=1;jettySize=auto;html=1;entryX=0;entryY=0.5;entryDx=0;entryDy=0;endArrow=none;endFill=0;exitX=1;exitY=0.5;exitDx=0;exitDy=0;fillColor=#dae8fc;strokeColor=#A9C4EB;" edge="1" parent="1" source="0CIJcV_qVtSHaj7hHHwW-21" target="0CIJcV_qVtSHaj7hHHwW-24">
          <mxGeometry relative="1" as="geometry" />
        </mxCell>
        <mxCell id="0CIJcV_qVtSHaj7hHHwW-37" style="edgeStyle=none;rounded=0;orthogonalLoop=1;jettySize=auto;html=1;entryX=0;entryY=0.5;entryDx=0;entryDy=0;endArrow=none;endFill=0;exitX=1;exitY=0.5;exitDx=0;exitDy=0;fillColor=#dae8fc;strokeColor=#A9C4EB;" edge="1" parent="1" source="0CIJcV_qVtSHaj7hHHwW-21" target="0CIJcV_qVtSHaj7hHHwW-25">
          <mxGeometry relative="1" as="geometry" />
        </mxCell>
        <mxCell id="0CIJcV_qVtSHaj7hHHwW-38" style="edgeStyle=none;rounded=0;orthogonalLoop=1;jettySize=auto;html=1;entryX=0;entryY=0.5;entryDx=0;entryDy=0;endArrow=none;endFill=0;fillColor=#dae8fc;strokeColor=#A9C4EB;" edge="1" parent="1" source="0CIJcV_qVtSHaj7hHHwW-21" target="0CIJcV_qVtSHaj7hHHwW-26">
          <mxGeometry relative="1" as="geometry" />
        </mxCell>
        <mxCell id="0CIJcV_qVtSHaj7hHHwW-39" style="edgeStyle=none;rounded=0;orthogonalLoop=1;jettySize=auto;html=1;entryX=0;entryY=0.5;entryDx=0;entryDy=0;endArrow=none;endFill=0;exitX=1;exitY=0.5;exitDx=0;exitDy=0;fillColor=#dae8fc;strokeColor=#A9C4EB;" edge="1" parent="1" source="0CIJcV_qVtSHaj7hHHwW-21" target="0CIJcV_qVtSHaj7hHHwW-27">
          <mxGeometry relative="1" as="geometry" />
        </mxCell>
        <mxCell id="0CIJcV_qVtSHaj7hHHwW-21" value="" style="ellipse;whiteSpace=wrap;html=1;strokeColor=#A9C4EB;fillColor=#A9C4EB;" vertex="1" parent="1">
          <mxGeometry x="-1993" y="-612" width="24" height="31" as="geometry" />
        </mxCell>
        <mxCell id="0CIJcV_qVtSHaj7hHHwW-32" style="edgeStyle=none;rounded=0;orthogonalLoop=1;jettySize=auto;html=1;entryX=0;entryY=0.5;entryDx=0;entryDy=0;endArrow=none;endFill=0;exitX=1;exitY=0.5;exitDx=0;exitDy=0;fillColor=#dae8fc;strokeColor=#A9C4EB;" edge="1" parent="1" source="0CIJcV_qVtSHaj7hHHwW-22" target="0CIJcV_qVtSHaj7hHHwW-24">
          <mxGeometry relative="1" as="geometry" />
        </mxCell>
        <mxCell id="0CIJcV_qVtSHaj7hHHwW-33" style="edgeStyle=none;rounded=0;orthogonalLoop=1;jettySize=auto;html=1;endArrow=none;endFill=0;fillColor=#dae8fc;strokeColor=#A9C4EB;" edge="1" parent="1" source="0CIJcV_qVtSHaj7hHHwW-22">
          <mxGeometry relative="1" as="geometry">
            <mxPoint x="-1935.8839742726293" y="-642" as="targetPoint" />
          </mxGeometry>
        </mxCell>
        <mxCell id="0CIJcV_qVtSHaj7hHHwW-34" style="edgeStyle=none;rounded=0;orthogonalLoop=1;jettySize=auto;html=1;entryX=0;entryY=0.5;entryDx=0;entryDy=0;endArrow=none;endFill=0;exitX=1;exitY=0.5;exitDx=0;exitDy=0;fillColor=#dae8fc;strokeColor=#A9C4EB;" edge="1" parent="1" source="0CIJcV_qVtSHaj7hHHwW-22" target="0CIJcV_qVtSHaj7hHHwW-26">
          <mxGeometry relative="1" as="geometry" />
        </mxCell>
        <mxCell id="0CIJcV_qVtSHaj7hHHwW-35" style="edgeStyle=none;rounded=0;orthogonalLoop=1;jettySize=auto;html=1;entryX=0;entryY=0.5;entryDx=0;entryDy=0;endArrow=none;endFill=0;exitX=1;exitY=0.5;exitDx=0;exitDy=0;fillColor=#dae8fc;strokeColor=#A9C4EB;" edge="1" parent="1" source="0CIJcV_qVtSHaj7hHHwW-22" target="0CIJcV_qVtSHaj7hHHwW-27">
          <mxGeometry relative="1" as="geometry" />
        </mxCell>
        <mxCell id="0CIJcV_qVtSHaj7hHHwW-22" value="" style="ellipse;whiteSpace=wrap;html=1;strokeColor=#A9C4EB;fillColor=#A9C4EB;" vertex="1" parent="1">
          <mxGeometry x="-1993" y="-657.5" width="24" height="31" as="geometry" />
        </mxCell>
        <mxCell id="0CIJcV_qVtSHaj7hHHwW-40" style="edgeStyle=none;rounded=0;orthogonalLoop=1;jettySize=auto;html=1;entryX=0;entryY=0.5;entryDx=0;entryDy=0;endArrow=none;endFill=0;exitX=1;exitY=0.5;exitDx=0;exitDy=0;fillColor=#dae8fc;strokeColor=#A9C4EB;" edge="1" parent="1" source="0CIJcV_qVtSHaj7hHHwW-23" target="0CIJcV_qVtSHaj7hHHwW-24">
          <mxGeometry relative="1" as="geometry" />
        </mxCell>
        <mxCell id="0CIJcV_qVtSHaj7hHHwW-41" style="edgeStyle=none;rounded=0;orthogonalLoop=1;jettySize=auto;html=1;entryX=0;entryY=0.5;entryDx=0;entryDy=0;endArrow=none;endFill=0;exitX=1;exitY=0.5;exitDx=0;exitDy=0;fillColor=#dae8fc;strokeColor=#A9C4EB;" edge="1" parent="1" source="0CIJcV_qVtSHaj7hHHwW-23" target="0CIJcV_qVtSHaj7hHHwW-25">
          <mxGeometry relative="1" as="geometry" />
        </mxCell>
        <mxCell id="0CIJcV_qVtSHaj7hHHwW-42" style="edgeStyle=none;rounded=0;orthogonalLoop=1;jettySize=auto;html=1;entryX=0;entryY=0.5;entryDx=0;entryDy=0;endArrow=none;endFill=0;exitX=1;exitY=0.5;exitDx=0;exitDy=0;fillColor=#dae8fc;strokeColor=#A9C4EB;" edge="1" parent="1" source="0CIJcV_qVtSHaj7hHHwW-23" target="0CIJcV_qVtSHaj7hHHwW-26">
          <mxGeometry relative="1" as="geometry" />
        </mxCell>
        <mxCell id="0CIJcV_qVtSHaj7hHHwW-43" style="edgeStyle=none;rounded=0;orthogonalLoop=1;jettySize=auto;html=1;entryX=0;entryY=0.5;entryDx=0;entryDy=0;endArrow=none;endFill=0;fillColor=#dae8fc;strokeColor=#A9C4EB;" edge="1" parent="1" source="0CIJcV_qVtSHaj7hHHwW-23" target="0CIJcV_qVtSHaj7hHHwW-27">
          <mxGeometry relative="1" as="geometry" />
        </mxCell>
        <mxCell id="0CIJcV_qVtSHaj7hHHwW-23" value="" style="ellipse;whiteSpace=wrap;html=1;strokeColor=#A9C4EB;fillColor=#A9C4EB;" vertex="1" parent="1">
          <mxGeometry x="-1993" y="-501" width="24" height="31" as="geometry" />
        </mxCell>
        <mxCell id="0CIJcV_qVtSHaj7hHHwW-24" value="" style="ellipse;whiteSpace=wrap;html=1;strokeColor=#A9C4EB;fillColor=#A9C4EB;" vertex="1" parent="1">
          <mxGeometry x="-1935" y="-698.5" width="24" height="31" as="geometry" />
        </mxCell>
        <mxCell id="0CIJcV_qVtSHaj7hHHwW-25" value="" style="ellipse;whiteSpace=wrap;html=1;strokeColor=#A9C4EB;fillColor=#A9C4EB;" vertex="1" parent="1">
          <mxGeometry x="-1935" y="-657.5" width="24" height="31" as="geometry" />
        </mxCell>
        <mxCell id="0CIJcV_qVtSHaj7hHHwW-26" value="" style="ellipse;whiteSpace=wrap;html=1;strokeColor=#A9C4EB;fillColor=#A9C4EB;" vertex="1" parent="1">
          <mxGeometry x="-1935" y="-612" width="24" height="31" as="geometry" />
        </mxCell>
        <mxCell id="0CIJcV_qVtSHaj7hHHwW-27" value="" style="ellipse;whiteSpace=wrap;html=1;strokeColor=#A9C4EB;fillColor=#A9C4EB;" vertex="1" parent="1">
          <mxGeometry x="-1935" y="-501" width="24" height="31" as="geometry" />
        </mxCell>
        <mxCell id="0CIJcV_qVtSHaj7hHHwW-44" value="&lt;b&gt;&lt;font style=&quot;font-size: 18px&quot; color=&quot;#a9c4eb&quot;&gt;. . .&lt;/font&gt;&lt;/b&gt;" style="text;html=1;strokeColor=none;fillColor=none;align=center;verticalAlign=middle;whiteSpace=wrap;rounded=0;rotation=90;" vertex="1" parent="1">
          <mxGeometry x="-1996" y="-545" width="40" height="11" as="geometry" />
        </mxCell>
        <mxCell id="0CIJcV_qVtSHaj7hHHwW-45" value="&lt;b&gt;&lt;font style=&quot;font-size: 18px&quot; color=&quot;#a9c4eb&quot;&gt;. . .&lt;/font&gt;&lt;/b&gt;" style="text;html=1;strokeColor=none;fillColor=none;align=center;verticalAlign=middle;whiteSpace=wrap;rounded=0;rotation=90;" vertex="1" parent="1">
          <mxGeometry x="-1939" y="-545" width="40" height="11" as="geometry" />
        </mxCell>
        <mxCell id="0CIJcV_qVtSHaj7hHHwW-46" value="&lt;font style=&quot;font-size: 36px&quot;&gt;BERT&lt;/font&gt;" style="text;html=1;strokeColor=none;fillColor=none;align=center;verticalAlign=middle;whiteSpace=wrap;rounded=0;rotation=90;" vertex="1" parent="1">
          <mxGeometry x="-1982" y="-606.5" width="60" height="38" as="geometry" />
        </mxCell>
        <mxCell id="0CIJcV_qVtSHaj7hHHwW-47" value="" style="shape=flexArrow;endArrow=classic;html=1;strokeColor=#82b366;endWidth=4.285714285714286;endSize=3.0904761904761906;fillColor=#d5e8d4;" edge="1" parent="1">
          <mxGeometry width="50" height="50" relative="1" as="geometry">
            <mxPoint x="-2023" y="-708.74" as="sourcePoint" />
            <mxPoint x="-2004" y="-708.74" as="targetPoint" />
          </mxGeometry>
        </mxCell>
        <mxCell id="0CIJcV_qVtSHaj7hHHwW-48" value="" style="shape=flexArrow;endArrow=classic;html=1;strokeColor=#82b366;endWidth=4.285714285714286;endSize=3.0904761904761906;fillColor=#d5e8d4;" edge="1" parent="1">
          <mxGeometry width="50" height="50" relative="1" as="geometry">
            <mxPoint x="-2023" y="-661.74" as="sourcePoint" />
            <mxPoint x="-2004" y="-661.74" as="targetPoint" />
          </mxGeometry>
        </mxCell>
        <mxCell id="0CIJcV_qVtSHaj7hHHwW-49" value="" style="shape=flexArrow;endArrow=classic;html=1;strokeColor=#82b366;endWidth=4.285714285714286;endSize=3.0904761904761906;fillColor=#d5e8d4;" edge="1" parent="1">
          <mxGeometry width="50" height="50" relative="1" as="geometry">
            <mxPoint x="-2023" y="-622.74" as="sourcePoint" />
            <mxPoint x="-2004" y="-622.74" as="targetPoint" />
          </mxGeometry>
        </mxCell>
        <mxCell id="0CIJcV_qVtSHaj7hHHwW-50" value="" style="shape=flexArrow;endArrow=classic;html=1;strokeColor=#82b366;endWidth=4.285714285714286;endSize=3.0904761904761906;fillColor=#d5e8d4;" edge="1" parent="1">
          <mxGeometry width="50" height="50" relative="1" as="geometry">
            <mxPoint x="-2023" y="-573.84" as="sourcePoint" />
            <mxPoint x="-2004" y="-573.84" as="targetPoint" />
          </mxGeometry>
        </mxCell>
        <mxCell id="0CIJcV_qVtSHaj7hHHwW-51" value="" style="shape=flexArrow;endArrow=classic;html=1;strokeColor=#82b366;endWidth=4.285714285714286;endSize=3.0904761904761906;fillColor=#d5e8d4;" edge="1" parent="1">
          <mxGeometry width="50" height="50" relative="1" as="geometry">
            <mxPoint x="-2025" y="-505.84000000000003" as="sourcePoint" />
            <mxPoint x="-2006" y="-505.84000000000003" as="targetPoint" />
          </mxGeometry>
        </mxCell>
        <mxCell id="0CIJcV_qVtSHaj7hHHwW-52" value="" style="shape=flexArrow;endArrow=classic;html=1;strokeColor=#82b366;endWidth=4.285714285714286;endSize=3.0904761904761906;fillColor=#d5e8d4;" edge="1" parent="1">
          <mxGeometry width="50" height="50" relative="1" as="geometry">
            <mxPoint x="-2025" y="-460.84000000000003" as="sourcePoint" />
            <mxPoint x="-2006" y="-460.84000000000003" as="targetPoint" />
          </mxGeometry>
        </mxCell>
        <mxCell id="0CIJcV_qVtSHaj7hHHwW-53" value="h&lt;sub&gt;q1&lt;/sub&gt;" style="rounded=1;whiteSpace=wrap;html=1;direction=west;fillColor=#fff2cc;strokeColor=#d6b656;" vertex="1" parent="1">
          <mxGeometry x="-1863" y="-719" width="44" height="21" as="geometry" />
        </mxCell>
        <mxCell id="0CIJcV_qVtSHaj7hHHwW-54" value="h&lt;sub&gt;qm&lt;/sub&gt;" style="rounded=1;whiteSpace=wrap;html=1;fillColor=#fff2cc;strokeColor=#d6b656;" vertex="1" parent="1">
          <mxGeometry x="-1865" y="-672" width="44" height="21" as="geometry" />
        </mxCell>
        <mxCell id="0CIJcV_qVtSHaj7hHHwW-55" value="&lt;b&gt;&lt;font style=&quot;font-size: 18px&quot;&gt;···&lt;/font&gt;&lt;/b&gt;" style="text;html=1;align=center;verticalAlign=middle;whiteSpace=wrap;rounded=0;rotation=90;" vertex="1" parent="1">
          <mxGeometry x="-1861" y="-695" width="40" height="20" as="geometry" />
        </mxCell>
        <mxCell id="0CIJcV_qVtSHaj7hHHwW-56" value="h&lt;sub&gt;11&lt;/sub&gt;" style="rounded=1;whiteSpace=wrap;html=1;fillColor=#fff2cc;strokeColor=#d6b656;" vertex="1" parent="1">
          <mxGeometry x="-1865" y="-633" width="44" height="21" as="geometry" />
        </mxCell>
        <mxCell id="0CIJcV_qVtSHaj7hHHwW-57" value="h&lt;sub&gt;1m&lt;/sub&gt;" style="rounded=1;whiteSpace=wrap;html=1;fillColor=#fff2cc;strokeColor=#d6b656;" vertex="1" parent="1">
          <mxGeometry x="-1865" y="-584" width="44" height="21" as="geometry" />
        </mxCell>
        <mxCell id="0CIJcV_qVtSHaj7hHHwW-58" value="&lt;b&gt;&lt;font style=&quot;font-size: 18px&quot;&gt;···&lt;/font&gt;&lt;/b&gt;" style="text;html=1;align=center;verticalAlign=middle;whiteSpace=wrap;rounded=0;rotation=90;" vertex="1" parent="1">
          <mxGeometry x="-1863" y="-606" width="40" height="20" as="geometry" />
        </mxCell>
        <mxCell id="0CIJcV_qVtSHaj7hHHwW-59" value="h&lt;sub&gt;n1&lt;/sub&gt;" style="rounded=1;whiteSpace=wrap;html=1;fillColor=#fff2cc;strokeColor=#d6b656;" vertex="1" parent="1">
          <mxGeometry x="-1867" y="-516" width="44" height="21" as="geometry" />
        </mxCell>
        <mxCell id="0CIJcV_qVtSHaj7hHHwW-60" value="h&lt;sub&gt;nm&lt;/sub&gt;" style="rounded=1;whiteSpace=wrap;html=1;fillColor=#fff2cc;strokeColor=#d6b656;" vertex="1" parent="1">
          <mxGeometry x="-1868" y="-471" width="44" height="21" as="geometry" />
        </mxCell>
        <mxCell id="0CIJcV_qVtSHaj7hHHwW-61" value="&lt;b&gt;&lt;font style=&quot;font-size: 18px&quot;&gt;···&lt;/font&gt;&lt;/b&gt;" style="text;html=1;align=center;verticalAlign=middle;whiteSpace=wrap;rounded=0;rotation=90;" vertex="1" parent="1">
          <mxGeometry x="-1865" y="-491" width="40" height="20" as="geometry" />
        </mxCell>
        <mxCell id="0CIJcV_qVtSHaj7hHHwW-65" value="&lt;b&gt;&lt;font style=&quot;font-size: 18px&quot;&gt;···&lt;/font&gt;&lt;/b&gt;" style="text;html=1;align=center;verticalAlign=middle;whiteSpace=wrap;rounded=0;rotation=90;" vertex="1" parent="1">
          <mxGeometry x="-1865" y="-549" width="40" height="20" as="geometry" />
        </mxCell>
        <mxCell id="0CIJcV_qVtSHaj7hHHwW-66" value="" style="shape=flexArrow;endArrow=classic;html=1;strokeColor=#d6b656;endWidth=4.285714285714286;endSize=3.0904761904761906;fillColor=#fff2cc;" edge="1" parent="1">
          <mxGeometry width="50" height="50" relative="1" as="geometry">
            <mxPoint x="-1897" y="-708.87" as="sourcePoint" />
            <mxPoint x="-1878" y="-708.87" as="targetPoint" />
          </mxGeometry>
        </mxCell>
        <mxCell id="0CIJcV_qVtSHaj7hHHwW-67" value="" style="shape=flexArrow;endArrow=classic;html=1;strokeColor=#d6b656;endWidth=4.285714285714286;endSize=3.0904761904761906;fillColor=#fff2cc;" edge="1" parent="1">
          <mxGeometry width="50" height="50" relative="1" as="geometry">
            <mxPoint x="-1897" y="-661.87" as="sourcePoint" />
            <mxPoint x="-1878" y="-661.87" as="targetPoint" />
          </mxGeometry>
        </mxCell>
        <mxCell id="0CIJcV_qVtSHaj7hHHwW-68" value="" style="shape=flexArrow;endArrow=classic;html=1;strokeColor=#d6b656;endWidth=4.285714285714286;endSize=3.0904761904761906;fillColor=#fff2cc;" edge="1" parent="1">
          <mxGeometry width="50" height="50" relative="1" as="geometry">
            <mxPoint x="-1897" y="-622.87" as="sourcePoint" />
            <mxPoint x="-1878" y="-622.87" as="targetPoint" />
          </mxGeometry>
        </mxCell>
        <mxCell id="0CIJcV_qVtSHaj7hHHwW-69" value="" style="shape=flexArrow;endArrow=classic;html=1;strokeColor=#d6b656;endWidth=4.285714285714286;endSize=3.0904761904761906;fillColor=#fff2cc;" edge="1" parent="1">
          <mxGeometry width="50" height="50" relative="1" as="geometry">
            <mxPoint x="-1897" y="-573.97" as="sourcePoint" />
            <mxPoint x="-1878" y="-573.97" as="targetPoint" />
          </mxGeometry>
        </mxCell>
        <mxCell id="0CIJcV_qVtSHaj7hHHwW-70" value="" style="shape=flexArrow;endArrow=classic;html=1;strokeColor=#d6b656;endWidth=4.285714285714286;endSize=3.0904761904761906;fillColor=#fff2cc;" edge="1" parent="1">
          <mxGeometry width="50" height="50" relative="1" as="geometry">
            <mxPoint x="-1899" y="-505.97" as="sourcePoint" />
            <mxPoint x="-1880" y="-505.97" as="targetPoint" />
          </mxGeometry>
        </mxCell>
        <mxCell id="0CIJcV_qVtSHaj7hHHwW-71" value="" style="shape=flexArrow;endArrow=classic;html=1;strokeColor=#d6b656;endWidth=4.285714285714286;endSize=3.0904761904761906;fillColor=#fff2cc;" edge="1" parent="1">
          <mxGeometry width="50" height="50" relative="1" as="geometry">
            <mxPoint x="-1899" y="-460.97" as="sourcePoint" />
            <mxPoint x="-1880" y="-460.97" as="targetPoint" />
          </mxGeometry>
        </mxCell>
        <mxCell id="0CIJcV_qVtSHaj7hHHwW-74" value="" style="shape=curlyBracket;whiteSpace=wrap;html=1;rounded=1;flipH=1;strokeWidth=1;fillColor=none;direction=north;" vertex="1" parent="1">
          <mxGeometry x="-2091" y="-435.5" width="268" height="20" as="geometry" />
        </mxCell>
        <mxCell id="0CIJcV_qVtSHaj7hHHwW-75" value="&lt;font style=&quot;font-size: 14px&quot;&gt;Token level encoder&lt;/font&gt;" style="text;html=1;strokeColor=none;fillColor=none;align=center;verticalAlign=middle;whiteSpace=wrap;rounded=0;" vertex="1" parent="1">
          <mxGeometry x="-2020.5" y="-410.5" width="137" height="20" as="geometry" />
        </mxCell>
        <mxCell id="0CIJcV_qVtSHaj7hHHwW-76" value="Query &lt;br&gt;Attention" style="rounded=0;whiteSpace=wrap;html=1;strokeWidth=1;fillColor=#f8cecc;strokeColor=none;" vertex="1" parent="1">
          <mxGeometry x="-1770" y="-715" width="70" height="60" as="geometry" />
        </mxCell>
        <mxCell id="0CIJcV_qVtSHaj7hHHwW-77" value="Clause&lt;br&gt;Attention" style="rounded=0;whiteSpace=wrap;html=1;strokeWidth=1;fillColor=#f8cecc;strokeColor=none;" vertex="1" parent="1">
          <mxGeometry x="-1770" y="-629.25" width="70" height="178" as="geometry" />
        </mxCell>
        <mxCell id="0CIJcV_qVtSHaj7hHHwW-80" value="" style="shape=flexArrow;endArrow=classic;html=1;strokeColor=#b85450;endWidth=4.285714285714286;endSize=3.0904761904761906;fillColor=#f8cecc;" edge="1" parent="1">
          <mxGeometry width="50" height="50" relative="1" as="geometry">
            <mxPoint x="-1793" y="-685.4200000000001" as="sourcePoint" />
            <mxPoint x="-1774" y="-685.4200000000001" as="targetPoint" />
          </mxGeometry>
        </mxCell>
        <mxCell id="0CIJcV_qVtSHaj7hHHwW-81" value="" style="shape=flexArrow;endArrow=classic;html=1;strokeColor=#b85450;endWidth=4.285714285714286;endSize=3.0904761904761906;fillColor=#f8cecc;" edge="1" parent="1">
          <mxGeometry width="50" height="50" relative="1" as="geometry">
            <mxPoint x="-1793" y="-540.6700000000001" as="sourcePoint" />
            <mxPoint x="-1774" y="-540.6700000000001" as="targetPoint" />
          </mxGeometry>
        </mxCell>
        <mxCell id="0CIJcV_qVtSHaj7hHHwW-82" value="" style="shape=curlyBracket;whiteSpace=wrap;html=1;rounded=1;flipH=1;strokeWidth=1;fillColor=none;direction=east;" vertex="1" parent="1">
          <mxGeometry x="-1812" y="-708.62" width="12" height="47.25" as="geometry" />
        </mxCell>
        <mxCell id="0CIJcV_qVtSHaj7hHHwW-83" value="" style="shape=curlyBracket;whiteSpace=wrap;html=1;rounded=1;flipH=1;strokeWidth=1;fillColor=none;direction=east;" vertex="1" parent="1">
          <mxGeometry x="-1812" y="-623.5" width="12" height="168" as="geometry" />
        </mxCell>
        <mxCell id="0CIJcV_qVtSHaj7hHHwW-84" value="" style="shape=flexArrow;endArrow=classic;html=1;strokeColor=#b85450;endWidth=4.285714285714286;endSize=3.0904761904761906;fillColor=#f8cecc;" edge="1" parent="1">
          <mxGeometry width="50" height="50" relative="1" as="geometry">
            <mxPoint x="-1675" y="-684.8300000000002" as="sourcePoint" />
            <mxPoint x="-1548" y="-684.9200000000001" as="targetPoint" />
          </mxGeometry>
        </mxCell>
        <mxCell id="0CIJcV_qVtSHaj7hHHwW-85" value="" style="shape=flexArrow;endArrow=classic;html=1;strokeColor=#b85450;endWidth=4.285714285714286;endSize=3.0904761904761906;fillColor=#f8cecc;" edge="1" parent="1">
          <mxGeometry width="50" height="50" relative="1" as="geometry">
            <mxPoint x="-1697" y="-540.6700000000001" as="sourcePoint" />
            <mxPoint x="-1678" y="-540.6700000000001" as="targetPoint" />
          </mxGeometry>
        </mxCell>
        <mxCell id="0CIJcV_qVtSHaj7hHHwW-107" style="edgeStyle=none;rounded=0;orthogonalLoop=1;jettySize=auto;html=1;entryX=1;entryY=0.5;entryDx=0;entryDy=0;endArrow=none;endFill=0;strokeColor=#A9C4EB;fillColor=#CDA2BE;exitX=0;exitY=0.5;exitDx=0;exitDy=0;" edge="1" parent="1" source="0CIJcV_qVtSHaj7hHHwW-86" target="0CIJcV_qVtSHaj7hHHwW-103">
          <mxGeometry relative="1" as="geometry" />
        </mxCell>
        <mxCell id="0CIJcV_qVtSHaj7hHHwW-109" style="edgeStyle=none;rounded=0;orthogonalLoop=1;jettySize=auto;html=1;entryX=1;entryY=0.5;entryDx=0;entryDy=0;endArrow=none;endFill=0;strokeColor=#A9C4EB;fillColor=#CDA2BE;exitX=0;exitY=0.5;exitDx=0;exitDy=0;" edge="1" parent="1" source="0CIJcV_qVtSHaj7hHHwW-86" target="0CIJcV_qVtSHaj7hHHwW-104">
          <mxGeometry relative="1" as="geometry" />
        </mxCell>
        <mxCell id="0CIJcV_qVtSHaj7hHHwW-111" style="edgeStyle=none;rounded=0;orthogonalLoop=1;jettySize=auto;html=1;entryX=1;entryY=0.5;entryDx=0;entryDy=0;endArrow=none;endFill=0;strokeColor=#A9C4EB;fillColor=#CDA2BE;exitX=0;exitY=0.5;exitDx=0;exitDy=0;" edge="1" parent="1" source="0CIJcV_qVtSHaj7hHHwW-86" target="0CIJcV_qVtSHaj7hHHwW-105">
          <mxGeometry relative="1" as="geometry" />
        </mxCell>
        <mxCell id="0CIJcV_qVtSHaj7hHHwW-86" value="h&lt;sub&gt;q&lt;/sub&gt;" style="rounded=1;whiteSpace=wrap;html=1;direction=west;fillColor=#e1d5e7;strokeColor=#9673a6;" vertex="1" parent="1">
          <mxGeometry x="-1517" y="-695" width="44" height="21" as="geometry" />
        </mxCell>
        <mxCell id="0CIJcV_qVtSHaj7hHHwW-87" value="h&lt;span style=&quot;font-size: 10px&quot;&gt;&lt;sub&gt;c1&lt;/sub&gt;&lt;/span&gt;" style="rounded=1;whiteSpace=wrap;html=1;direction=west;fillColor=#e1d5e7;strokeColor=#9673a6;" vertex="1" parent="1">
          <mxGeometry x="-1675" y="-612" width="44" height="21" as="geometry" />
        </mxCell>
        <mxCell id="0CIJcV_qVtSHaj7hHHwW-88" value="h&lt;span style=&quot;font-size: 10px&quot;&gt;&lt;sub&gt;c2&lt;/sub&gt;&lt;/span&gt;" style="rounded=1;whiteSpace=wrap;html=1;direction=west;fillColor=#e1d5e7;strokeColor=#9673a6;" vertex="1" parent="1">
          <mxGeometry x="-1675" y="-581" width="44" height="21" as="geometry" />
        </mxCell>
        <mxCell id="0CIJcV_qVtSHaj7hHHwW-89" value="h&lt;span style=&quot;font-size: 10px&quot;&gt;&lt;sub&gt;cn&lt;/sub&gt;&lt;/span&gt;" style="rounded=1;whiteSpace=wrap;html=1;direction=west;fillColor=#e1d5e7;strokeColor=#9673a6;" vertex="1" parent="1">
          <mxGeometry x="-1675" y="-492" width="44" height="21" as="geometry" />
        </mxCell>
        <mxCell id="0CIJcV_qVtSHaj7hHHwW-90" value="&lt;b&gt;&lt;font style=&quot;font-size: 18px&quot;&gt;···&lt;/font&gt;&lt;/b&gt;" style="text;html=1;align=center;verticalAlign=middle;whiteSpace=wrap;rounded=0;rotation=90;" vertex="1" parent="1">
          <mxGeometry x="-1671" y="-536" width="40" height="20" as="geometry" />
        </mxCell>
        <mxCell id="0CIJcV_qVtSHaj7hHHwW-91" value="GAN" style="rounded=0;whiteSpace=wrap;html=1;strokeWidth=1;strokeColor=none;fillColor=#CDA2BE;" vertex="1" parent="1">
          <mxGeometry x="-1605" y="-628" width="57" height="178" as="geometry" />
        </mxCell>
        <mxCell id="0CIJcV_qVtSHaj7hHHwW-92" value="" style="shape=flexArrow;endArrow=classic;html=1;strokeColor=#9673a6;endWidth=4.285714285714286;endSize=3.0904761904761906;fillColor=#e1d5e7;" edge="1" parent="1">
          <mxGeometry width="50" height="50" relative="1" as="geometry">
            <mxPoint x="-1626" y="-601.9200000000001" as="sourcePoint" />
            <mxPoint x="-1607" y="-601.9200000000001" as="targetPoint" />
          </mxGeometry>
        </mxCell>
        <mxCell id="0CIJcV_qVtSHaj7hHHwW-93" value="" style="shape=flexArrow;endArrow=classic;html=1;strokeColor=#9673a6;endWidth=4.285714285714286;endSize=3.0904761904761906;fillColor=#e1d5e7;" edge="1" parent="1">
          <mxGeometry width="50" height="50" relative="1" as="geometry">
            <mxPoint x="-1626" y="-570.9200000000001" as="sourcePoint" />
            <mxPoint x="-1607" y="-570.9200000000001" as="targetPoint" />
          </mxGeometry>
        </mxCell>
        <mxCell id="0CIJcV_qVtSHaj7hHHwW-94" value="" style="shape=flexArrow;endArrow=classic;html=1;strokeColor=#9673a6;endWidth=4.285714285714286;endSize=3.0904761904761906;fillColor=#e1d5e7;" edge="1" parent="1">
          <mxGeometry width="50" height="50" relative="1" as="geometry">
            <mxPoint x="-1628" y="-481.4200000000001" as="sourcePoint" />
            <mxPoint x="-1609" y="-481.4200000000001" as="targetPoint" />
          </mxGeometry>
        </mxCell>
        <mxCell id="0CIJcV_qVtSHaj7hHHwW-108" style="edgeStyle=none;rounded=0;orthogonalLoop=1;jettySize=auto;html=1;entryX=1;entryY=0.5;entryDx=0;entryDy=0;endArrow=none;endFill=0;strokeColor=#A9C4EB;fillColor=#CDA2BE;exitX=0;exitY=0.5;exitDx=0;exitDy=0;" edge="1" parent="1" source="0CIJcV_qVtSHaj7hHHwW-95" target="0CIJcV_qVtSHaj7hHHwW-103">
          <mxGeometry relative="1" as="geometry" />
        </mxCell>
        <mxCell id="0CIJcV_qVtSHaj7hHHwW-95" value="h&lt;sup&gt;&#39;&lt;/sup&gt;&lt;span style=&quot;font-size: 10px&quot;&gt;&lt;sub&gt;c1&lt;/sub&gt;&lt;/span&gt;" style="rounded=1;whiteSpace=wrap;html=1;direction=west;strokeColor=#9673a6;fillColor=#CDA2BE;" vertex="1" parent="1">
          <mxGeometry x="-1517" y="-612" width="44" height="21" as="geometry" />
        </mxCell>
        <mxCell id="0CIJcV_qVtSHaj7hHHwW-110" style="edgeStyle=none;rounded=0;orthogonalLoop=1;jettySize=auto;html=1;entryX=1;entryY=0.5;entryDx=0;entryDy=0;endArrow=none;endFill=0;strokeColor=#A9C4EB;fillColor=#CDA2BE;exitX=0;exitY=0.5;exitDx=0;exitDy=0;" edge="1" parent="1" source="0CIJcV_qVtSHaj7hHHwW-96" target="0CIJcV_qVtSHaj7hHHwW-104">
          <mxGeometry relative="1" as="geometry" />
        </mxCell>
        <mxCell id="0CIJcV_qVtSHaj7hHHwW-96" value="h&lt;sup&gt;&#39;&lt;/sup&gt;&lt;span style=&quot;font-size: 10px&quot;&gt;&lt;sub&gt;c2&lt;/sub&gt;&lt;/span&gt;" style="rounded=1;whiteSpace=wrap;html=1;direction=west;strokeColor=#9673a6;fillColor=#CDA2BE;" vertex="1" parent="1">
          <mxGeometry x="-1517" y="-581" width="44" height="21" as="geometry" />
        </mxCell>
        <mxCell id="0CIJcV_qVtSHaj7hHHwW-112" style="edgeStyle=none;rounded=0;orthogonalLoop=1;jettySize=auto;html=1;entryX=1;entryY=0.5;entryDx=0;entryDy=0;endArrow=none;endFill=0;strokeColor=#A9C4EB;fillColor=#CDA2BE;exitX=0;exitY=0.5;exitDx=0;exitDy=0;" edge="1" parent="1" source="0CIJcV_qVtSHaj7hHHwW-97" target="0CIJcV_qVtSHaj7hHHwW-105">
          <mxGeometry relative="1" as="geometry" />
        </mxCell>
        <mxCell id="0CIJcV_qVtSHaj7hHHwW-97" value="h&lt;sup&gt;&#39;&lt;/sup&gt;&lt;span style=&quot;font-size: 10px&quot;&gt;&lt;sub&gt;cn&lt;/sub&gt;&lt;/span&gt;" style="rounded=1;whiteSpace=wrap;html=1;direction=west;strokeColor=#9673a6;fillColor=#CDA2BE;" vertex="1" parent="1">
          <mxGeometry x="-1517" y="-492" width="44" height="21" as="geometry" />
        </mxCell>
        <mxCell id="0CIJcV_qVtSHaj7hHHwW-98" value="&lt;b&gt;&lt;font style=&quot;font-size: 18px&quot;&gt;···&lt;/font&gt;&lt;/b&gt;" style="text;html=1;align=center;verticalAlign=middle;whiteSpace=wrap;rounded=0;rotation=90;" vertex="1" parent="1">
          <mxGeometry x="-1513" y="-536" width="40" height="20" as="geometry" />
        </mxCell>
        <mxCell id="0CIJcV_qVtSHaj7hHHwW-99" value="" style="shape=flexArrow;endArrow=classic;html=1;strokeColor=#9673a6;endWidth=4.285714285714286;endSize=3.0904761904761906;fillColor=#CDA2BE;" edge="1" parent="1">
          <mxGeometry width="50" height="50" relative="1" as="geometry">
            <mxPoint x="-1541" y="-600.9200000000001" as="sourcePoint" />
            <mxPoint x="-1522" y="-600.9200000000001" as="targetPoint" />
          </mxGeometry>
        </mxCell>
        <mxCell id="0CIJcV_qVtSHaj7hHHwW-100" value="" style="shape=flexArrow;endArrow=classic;html=1;strokeColor=#9673a6;endWidth=4.285714285714286;endSize=3.0904761904761906;fillColor=#CDA2BE;" edge="1" parent="1">
          <mxGeometry width="50" height="50" relative="1" as="geometry">
            <mxPoint x="-1541" y="-569.9200000000001" as="sourcePoint" />
            <mxPoint x="-1522" y="-569.9200000000001" as="targetPoint" />
          </mxGeometry>
        </mxCell>
        <mxCell id="0CIJcV_qVtSHaj7hHHwW-101" value="" style="shape=flexArrow;endArrow=classic;html=1;strokeColor=#9673a6;endWidth=4.285714285714286;endSize=3.0904761904761906;fillColor=#CDA2BE;" edge="1" parent="1">
          <mxGeometry width="50" height="50" relative="1" as="geometry">
            <mxPoint x="-1543" y="-480.4200000000001" as="sourcePoint" />
            <mxPoint x="-1524" y="-480.4200000000001" as="targetPoint" />
          </mxGeometry>
        </mxCell>
        <mxCell id="0CIJcV_qVtSHaj7hHHwW-103" value="h&lt;span style=&quot;font-size: 10px&quot;&gt;&lt;sub&gt;1&lt;/sub&gt;&lt;/span&gt;" style="rounded=1;whiteSpace=wrap;html=1;direction=west;fillColor=#b1ddf0;strokeColor=#10739e;" vertex="1" parent="1">
          <mxGeometry x="-1395" y="-655" width="44" height="21" as="geometry" />
        </mxCell>
        <mxCell id="0CIJcV_qVtSHaj7hHHwW-104" value="h&lt;span style=&quot;font-size: 10px&quot;&gt;&lt;sub&gt;2&lt;/sub&gt;&lt;/span&gt;" style="rounded=1;whiteSpace=wrap;html=1;direction=west;fillColor=#b1ddf0;strokeColor=#10739e;" vertex="1" parent="1">
          <mxGeometry x="-1395" y="-624" width="44" height="21" as="geometry" />
        </mxCell>
        <mxCell id="0CIJcV_qVtSHaj7hHHwW-105" value="h&lt;span style=&quot;font-size: 10px&quot;&gt;&lt;sub&gt;n&lt;/sub&gt;&lt;/span&gt;" style="rounded=1;whiteSpace=wrap;html=1;direction=west;fillColor=#b1ddf0;strokeColor=#10739e;" vertex="1" parent="1">
          <mxGeometry x="-1395" y="-535" width="44" height="21" as="geometry" />
        </mxCell>
        <mxCell id="0CIJcV_qVtSHaj7hHHwW-106" value="&lt;b&gt;&lt;font style=&quot;font-size: 18px&quot;&gt;···&lt;/font&gt;&lt;/b&gt;" style="text;html=1;align=center;verticalAlign=middle;whiteSpace=wrap;rounded=0;rotation=90;" vertex="1" parent="1">
          <mxGeometry x="-1391" y="-579" width="40" height="20" as="geometry" />
        </mxCell>
        <mxCell id="0CIJcV_qVtSHaj7hHHwW-116" value="&lt;font style=&quot;font-size: 24px&quot;&gt;CONCAT&lt;/font&gt;" style="text;html=1;strokeColor=none;fillColor=none;align=center;verticalAlign=middle;whiteSpace=wrap;rounded=0;shadow=0;glass=0;sketch=0;rotation=90;" vertex="1" parent="1">
          <mxGeometry x="-1453.03" y="-594.5" width="40" height="20" as="geometry" />
        </mxCell>
        <mxCell id="0CIJcV_qVtSHaj7hHHwW-117" value="" style="shape=curlyBracket;whiteSpace=wrap;html=1;rounded=1;flipH=1;strokeWidth=1;fillColor=none;direction=north;" vertex="1" parent="1">
          <mxGeometry x="-1785" y="-435.5" width="325" height="20" as="geometry" />
        </mxCell>
        <mxCell id="0CIJcV_qVtSHaj7hHHwW-118" value="&lt;font style=&quot;font-size: 14px&quot;&gt;Clause level encoder&lt;/font&gt;" style="text;html=1;strokeColor=none;fillColor=none;align=center;verticalAlign=middle;whiteSpace=wrap;rounded=0;" vertex="1" parent="1">
          <mxGeometry x="-1685" y="-410.5" width="137" height="20" as="geometry" />
        </mxCell>
        <mxCell id="0CIJcV_qVtSHaj7hHHwW-119" style="edgeStyle=orthogonalEdgeStyle;rounded=0;orthogonalLoop=1;jettySize=auto;html=1;exitX=0.25;exitY=1;exitDx=0;exitDy=0;entryX=0.5;entryY=0;entryDx=0;entryDy=0;" edge="1" parent="1" source="0CIJcV_qVtSHaj7hHHwW-121" target="0CIJcV_qVtSHaj7hHHwW-122">
          <mxGeometry relative="1" as="geometry" />
        </mxCell>
        <mxCell id="0CIJcV_qVtSHaj7hHHwW-120" style="edgeStyle=orthogonalEdgeStyle;rounded=0;orthogonalLoop=1;jettySize=auto;html=1;exitX=0.75;exitY=1;exitDx=0;exitDy=0;entryX=0.5;entryY=0;entryDx=0;entryDy=0;" edge="1" parent="1" source="0CIJcV_qVtSHaj7hHHwW-121" target="0CIJcV_qVtSHaj7hHHwW-127">
          <mxGeometry relative="1" as="geometry" />
        </mxCell>
        <mxCell id="0CIJcV_qVtSHaj7hHHwW-121" value="&lt;font style=&quot;font-size: 14px&quot;&gt;&lt;font face=&quot;Verdana&quot;&gt;&lt;b&gt;[&lt;/b&gt;&lt;/font&gt;&lt;span style=&quot;font-family: &amp;#34;verdana&amp;#34;&quot;&gt;Is it a&amp;nbsp;&lt;/span&gt;&lt;b style=&quot;font-family: &amp;#34;verdana&amp;#34;&quot;&gt;emotion&lt;/b&gt;&lt;span style=&quot;font-family: &amp;#34;verdana&amp;#34;&quot;&gt;&amp;nbsp;clause&amp;nbsp;&lt;/span&gt;&lt;b style=&quot;font-family: &amp;#34;verdana&amp;#34;&quot;&gt;;&lt;/b&gt;&lt;span style=&quot;font-family: &amp;#34;verdana&amp;#34;&quot;&gt;&amp;nbsp;&lt;b&gt;c&lt;sub&gt;i&lt;/sub&gt;]&lt;/b&gt;&lt;/span&gt;&lt;/font&gt;" style="rounded=1;whiteSpace=wrap;html=1;fillColor=#dae8fc;strokeColor=#6c8ebf;" vertex="1" parent="1">
          <mxGeometry x="-2548.38" y="-707.5" width="359.5" height="30" as="geometry" />
        </mxCell>
        <mxCell id="0CIJcV_qVtSHaj7hHHwW-122" value="END" style="rounded=1;whiteSpace=wrap;html=1;" vertex="1" parent="1">
          <mxGeometry x="-2497.88" y="-639.5" width="81" height="18" as="geometry" />
        </mxCell>
        <mxCell id="0CIJcV_qVtSHaj7hHHwW-123" style="edgeStyle=orthogonalEdgeStyle;rounded=0;orthogonalLoop=1;jettySize=auto;html=1;exitX=0.25;exitY=1;exitDx=0;exitDy=0;entryX=0.5;entryY=0;entryDx=0;entryDy=0;" edge="1" parent="1" source="0CIJcV_qVtSHaj7hHHwW-125" target="0CIJcV_qVtSHaj7hHHwW-128">
          <mxGeometry relative="1" as="geometry" />
        </mxCell>
        <mxCell id="0CIJcV_qVtSHaj7hHHwW-124" style="edgeStyle=orthogonalEdgeStyle;rounded=0;orthogonalLoop=1;jettySize=auto;html=1;exitX=0.75;exitY=1;exitDx=0;exitDy=0;" edge="1" parent="1" source="0CIJcV_qVtSHaj7hHHwW-125" target="0CIJcV_qVtSHaj7hHHwW-130">
          <mxGeometry relative="1" as="geometry" />
        </mxCell>
        <mxCell id="0CIJcV_qVtSHaj7hHHwW-125" value="&lt;font style=&quot;font-size: 14px&quot; face=&quot;Verdana&quot;&gt;&lt;b&gt;[&lt;/b&gt; Is it a &lt;b&gt;cause&lt;/b&gt; clause corresponding &lt;b&gt;c&lt;sub&gt;i&lt;/sub&gt;&lt;/b&gt; &lt;b&gt;;&lt;/b&gt; &lt;b&gt;c&lt;sub&gt;j&lt;/sub&gt;&amp;nbsp;]&lt;/b&gt;&lt;/font&gt;" style="rounded=1;whiteSpace=wrap;html=1;fillColor=#d5e8d4;strokeColor=#82b366;" vertex="1" parent="1">
          <mxGeometry x="-2548.38" y="-603.5" width="359" height="30" as="geometry" />
        </mxCell>
        <mxCell id="0CIJcV_qVtSHaj7hHHwW-126" style="edgeStyle=orthogonalEdgeStyle;rounded=0;orthogonalLoop=1;jettySize=auto;html=1;exitX=0.5;exitY=1;exitDx=0;exitDy=0;entryX=0.75;entryY=0;entryDx=0;entryDy=0;" edge="1" parent="1" source="0CIJcV_qVtSHaj7hHHwW-127" target="0CIJcV_qVtSHaj7hHHwW-125">
          <mxGeometry relative="1" as="geometry" />
        </mxCell>
        <mxCell id="0CIJcV_qVtSHaj7hHHwW-127" value="&lt;font style=&quot;font-size: 14px&quot;&gt;emotion clause c&lt;sub&gt;i&lt;/sub&gt;&lt;/font&gt;" style="rounded=1;whiteSpace=wrap;html=1;fillColor=#fad7ac;strokeColor=#b46504;" vertex="1" parent="1">
          <mxGeometry x="-2340.38" y="-643.5" width="122.5" height="26" as="geometry" />
        </mxCell>
        <mxCell id="0CIJcV_qVtSHaj7hHHwW-128" value="END" style="rounded=1;whiteSpace=wrap;html=1;" vertex="1" parent="1">
          <mxGeometry x="-2500.38" y="-536.5" width="81" height="18" as="geometry" />
        </mxCell>
        <mxCell id="0CIJcV_qVtSHaj7hHHwW-129" style="edgeStyle=orthogonalEdgeStyle;rounded=0;orthogonalLoop=1;jettySize=auto;html=1;exitX=0.5;exitY=1;exitDx=0;exitDy=0;entryX=0.75;entryY=0;entryDx=0;entryDy=0;dashed=1;endArrow=block;endFill=0;" edge="1" parent="1" source="0CIJcV_qVtSHaj7hHHwW-130" target="0CIJcV_qVtSHaj7hHHwW-132">
          <mxGeometry relative="1" as="geometry" />
        </mxCell>
        <mxCell id="0CIJcV_qVtSHaj7hHHwW-130" value="&lt;font style=&quot;font-size: 14px&quot;&gt;candidate pair (c&lt;sub&gt;i&lt;/sub&gt;, c&lt;sub&gt;j&lt;/sub&gt;)&lt;/font&gt;" style="rounded=1;whiteSpace=wrap;html=1;fillColor=#fad7ac;strokeColor=#b46504;" vertex="1" parent="1">
          <mxGeometry x="-2354.63" y="-540.5" width="151" height="26" as="geometry" />
        </mxCell>
        <mxCell id="0CIJcV_qVtSHaj7hHHwW-131" style="edgeStyle=orthogonalEdgeStyle;rounded=0;orthogonalLoop=1;jettySize=auto;html=1;entryX=1;entryY=0.5;entryDx=0;entryDy=0;dashed=1;endArrow=open;endFill=0;fillColor=#e1d5e7;strokeColor=#9673a6;" edge="1" parent="1" source="0CIJcV_qVtSHaj7hHHwW-132" target="0CIJcV_qVtSHaj7hHHwW-127">
          <mxGeometry relative="1" as="geometry">
            <Array as="points">
              <mxPoint x="-2368.38" y="-440.5" />
              <mxPoint x="-2171.38" y="-440.5" />
              <mxPoint x="-2171.38" y="-630.5" />
            </Array>
          </mxGeometry>
        </mxCell>
        <mxCell id="0CIJcV_qVtSHaj7hHHwW-132" value="&lt;font style=&quot;font-size: 14px&quot; face=&quot;Verdana&quot;&gt;&lt;b&gt;[&lt;/b&gt; Is it a &lt;b&gt;emotion&lt;/b&gt; clause corresponding &lt;b&gt;c&lt;sub&gt;j&lt;/sub&gt;&lt;/b&gt;&amp;nbsp;&lt;b&gt;;&lt;/b&gt; &lt;b&gt;c&lt;sub&gt;i&lt;/sub&gt;&amp;nbsp;]&lt;/b&gt;&lt;/font&gt;" style="rounded=1;whiteSpace=wrap;html=1;fillColor=#e1d5e7;strokeColor=#9673a6;" vertex="1" parent="1">
          <mxGeometry x="-2547.88" y="-497.5" width="359" height="30" as="geometry" />
        </mxCell>
        <mxCell id="0CIJcV_qVtSHaj7hHHwW-133" value="&lt;b&gt;First Turn&lt;/b&gt;" style="text;html=1;strokeColor=none;fillColor=none;align=center;verticalAlign=middle;whiteSpace=wrap;rounded=0;" vertex="1" parent="1">
          <mxGeometry x="-2651.75" y="-702.5" width="97" height="20" as="geometry" />
        </mxCell>
        <mxCell id="0CIJcV_qVtSHaj7hHHwW-134" value="&lt;b&gt;Second Turn&lt;/b&gt;" style="text;html=1;strokeColor=none;fillColor=none;align=center;verticalAlign=middle;whiteSpace=wrap;rounded=0;" vertex="1" parent="1">
          <mxGeometry x="-2652" y="-598.5" width="100.25" height="20" as="geometry" />
        </mxCell>
        <mxCell id="0CIJcV_qVtSHaj7hHHwW-135" value="&lt;b&gt;Third Turn&lt;/b&gt;" style="text;html=1;strokeColor=none;fillColor=none;align=center;verticalAlign=middle;whiteSpace=wrap;rounded=0;" vertex="1" parent="1">
          <mxGeometry x="-2651.13" y="-492.5" width="98.5" height="20" as="geometry" />
        </mxCell>
        <mxCell id="0CIJcV_qVtSHaj7hHHwW-136" value="&lt;b&gt;No&lt;/b&gt;" style="text;html=1;strokeColor=none;fillColor=none;align=center;verticalAlign=middle;whiteSpace=wrap;rounded=0;" vertex="1" parent="1">
          <mxGeometry x="-2452.38" y="-565.5" width="40" height="20" as="geometry" />
        </mxCell>
        <mxCell id="0CIJcV_qVtSHaj7hHHwW-137" value="&lt;b&gt;Yes&lt;/b&gt;" style="text;html=1;strokeColor=none;fillColor=none;align=center;verticalAlign=middle;whiteSpace=wrap;rounded=0;" vertex="1" parent="1">
          <mxGeometry x="-2269.38" y="-565.5" width="40" height="20" as="geometry" />
        </mxCell>
        <mxCell id="0CIJcV_qVtSHaj7hHHwW-138" value="&lt;b&gt;Rethink&lt;/b&gt;" style="text;html=1;strokeColor=none;fillColor=none;align=center;verticalAlign=middle;whiteSpace=wrap;rounded=0;" vertex="1" parent="1">
          <mxGeometry x="-2276.75" y="-459.5" width="54.75" height="20" as="geometry" />
        </mxCell>
        <mxCell id="0CIJcV_qVtSHaj7hHHwW-139" value="&lt;b&gt;No&lt;/b&gt;" style="text;html=1;strokeColor=none;fillColor=none;align=center;verticalAlign=middle;whiteSpace=wrap;rounded=0;" vertex="1" parent="1">
          <mxGeometry x="-2452.38" y="-668.5" width="40" height="20" as="geometry" />
        </mxCell>
        <mxCell id="0CIJcV_qVtSHaj7hHHwW-140" value="&lt;b&gt;Yes&lt;/b&gt;" style="text;html=1;strokeColor=none;fillColor=none;align=center;verticalAlign=middle;whiteSpace=wrap;rounded=0;" vertex="1" parent="1">
          <mxGeometry x="-2269.38" y="-668.5" width="40" height="20" as="geometry" />
        </mxCell>
        <mxCell id="0CIJcV_qVtSHaj7hHHwW-141" value="" style="endArrow=none;dashed=1;html=1;fillColor=#f5f5f5;strokeWidth=2;" edge="1" parent="1">
          <mxGeometry width="50" height="50" relative="1" as="geometry">
            <mxPoint x="-2144" y="-384" as="sourcePoint" />
            <mxPoint x="-2144" y="-735" as="targetPoint" />
          </mxGeometry>
        </mxCell>
      </root>
    </mxGraphModel>
  </diagram>
</mxfile>
